<?xml version="1.0" encoding="UTF-8"?>
<svg xmlns="http://www.w3.org/2000/svg" viewBox="0 0 64 64">
  <g id="a" data-name="Layer 1">
    <rect x="0" y="0" width="64" height="64" rx="3.63" ry="3.63"/>
  </g>
  <g id="b" data-name="Layer 2">
    <polygon points="38.76 51.48 21.53 51.48 29.52 12.88 46.75 12.88 38.76 51.48" style="fill: none; stroke: #999; stroke-miterlimit: 10; stroke-width: 7px;"/>
    <polygon points="20.61 56.3 14.86 56.3 25.08 7.7 30.84 7.7 20.61 56.3" style="fill: #fff;"/>
    <polygon points="12.62 56.3 5.49 56.3 11.86 27.63 18.99 27.63 12.62 56.3" style="fill: #999;"/>
    <polygon points="19.16 26.44 12.03 26.44 13.4 20.89 20.54 20.89 19.16 26.44" style="fill: #999;"/>
    <polygon points="43.37 56.3 37.61 56.3 47.84 7.7 53.59 7.7 43.37 56.3" style="fill: #fff;"/>
    <polygon points="25.59 56.3 21.19 56.3 24.01 42.89 28.4 42.89 25.59 56.3" style="fill: #fff;"/>
    <polygon points="39.24 12.89 13.24 12.89 14.33 7.71 40.33 7.71 39.24 12.89" style="fill: #fff;"/>
    <polygon points="57.41 12.89 40.07 12.88 41.17 7.71 58.51 7.72 57.41 12.89" style="fill: #fff;"/>
    <polygon points="43.27 56.3 25.52 56.3 26.62 51.11 44.37 51.11 43.27 56.3" style="fill: #fff;"/>
  </g>
</svg>